<svg xmlns="http://www.w3.org/2000/svg" width="67" height="60" viewBox="0 0 67 60">
    <defs>
        <linearGradient id="a" x1="50%" x2="50%" y1="0%" y2="100%">
            <stop offset="0%" stop-color="#EF5F01"/>
            <stop offset="100%" stop-color="#853501"/>
        </linearGradient>
    </defs>
    <g fill="none" fill-rule="evenodd">
        <path fill="#202020" d="M0 0h67v60H0z"/>
        <path fill="url(#a)" d="M19.094 0l.851.024-6.853 11.592h7.85V24.51L3.188 36.303h-.46l-1.172-.03L8.404 24.51H.065V11.534L18.312 0h.782z" transform="matrix(-1 0 0 1 43.969 11.86)"/>
        <path fill="#FFF" stroke="#E8E8E8" stroke-width=".931" d="M27.943 24.45h3.64l3.97 10.642h-3.725l-.533-1.563h-3.237l-.503 1.563H23.93l4.013-10.641zm2.656 4.795l-1.753-1.198.652 1.174-.697.024v1.126l1.73 1.199-.65-1.175h.718v-1.15zm-8.583.316a2.672 2.672 0 0 1 1.324.804c.182.206.326.444.432.714.105.27.158.571.158.902 0 .581-.113 1.07-.338 1.466a2.801 2.801 0 0 1-.892.961c-.37.246-.792.421-1.267.527a6.73 6.73 0 0 1-1.46.157h-4.619V24.451h4.187c.413 0 .852.032 1.317.097.465.065.894.196 1.288.391.393.195.719.481.978.857s.389.87.389 1.48c0 .572-.137 1.042-.41 1.413-.274.371-.636.647-1.087.827v.045zm-1.464-2.286h-1.35v.838h1.35v-.838zm-1.35-.872l.507.872h.81l-1.316-.872zm1.316 2.583l-.506-.873h-.81l1.316.873zm.182 1.895H18.9v1.142H20.7v-1.142zm-1.754-1.19l.674 1.19h1.08l-1.754-1.19zm1.754 3.523l-.675-1.19h-1.08l1.755 1.19zm19.502 1.878H36.69V27.45h-2.568v-3.03h8.648v3.03h-2.568v7.643zm9.723 0h-3.512V27.45h-2.568v-3.03h8.648v3.03h-2.568v7.643z"/>
        <path fill="#0C0C0C" d="M27.943 24.45h3.64l3.97 10.642h-3.725l-.533-1.563h-3.237l-.503 1.563H23.93l4.013-10.641zm2.656 4.795l-1.753-1.198.652 1.174-.697.024v1.126l1.73 1.199-.65-1.175h.718v-1.15zm-8.583.316a2.672 2.672 0 0 1 1.324.804c.182.206.326.444.432.714.105.27.158.571.158.902 0 .581-.113 1.07-.338 1.466a2.801 2.801 0 0 1-.892.961c-.37.246-.792.421-1.267.527a6.73 6.73 0 0 1-1.46.157h-4.619V24.451h4.187c.413 0 .852.032 1.317.097.465.065.894.196 1.288.391.393.195.719.481.978.857s.389.87.389 1.48c0 .572-.137 1.042-.41 1.413-.274.371-.636.647-1.087.827v.045zm-1.464-2.286h-1.35v.838h1.35v-.838zm-1.35-.872l.507.872h.81l-1.316-.872zm1.316 2.583l-.506-.873h-.81l1.316.873zm.182 1.895H18.9v1.142H20.7v-1.142zm-1.754-1.19l.674 1.19h1.08l-1.754-1.19zm1.754 3.523l-.675-1.19h-1.08l1.755 1.19zm19.502 1.878H36.69V27.45h-2.568v-3.03h8.648v3.03h-2.568v7.643zm9.723 0h-3.512V27.45h-2.568v-3.03h8.648v3.03h-2.568v7.643z"/>
    </g>
</svg>
