<svg xmlns="http://www.w3.org/2000/svg" width="85" height="85" viewBox="0 0 85 85">
    <g fill="none" fill-rule="evenodd" stroke="#FFF">
        <circle cx="39.5" cy="39.5" r="39.5" stroke-width="5" transform="translate(3 3)"/>
        <path stroke-width="3.25" d="M40.848 57.807c-2.558-.884-4.393-3.3-4.393-6.14 0-3.59 2.93-6.5 6.545-6.5 3.615 0 6.545 2.91 6.545 6.5 0 2.84-1.835 5.256-4.393 6.14.02.117.03.237.03.36v8.666A2.174 2.174 0 0 1 43 69a2.174 2.174 0 0 1-2.182-2.167v-8.666c0-.123.01-.243.03-.36zm21.758-29.614c2.558.884 4.394 3.3 4.394 6.14 0 3.59-2.93 6.5-6.545 6.5-3.615 0-6.546-2.91-6.546-6.5 0-2.84 1.836-5.256 4.394-6.14a2.167 2.167 0 0 1-.03-.36v-8.666c0-1.197.977-2.167 2.182-2.167s2.181.97 2.181 2.167v8.666c0 .123-.01.243-.03.36zm-39.212 18.78C20.836 46.09 19 43.676 19 40.834c0-3.59 2.93-6.5 6.545-6.5 3.615 0 6.546 2.91 6.546 6.5 0 2.842-1.836 5.257-4.394 6.14.02.118.03.238.03.36v19.5A2.174 2.174 0 0 1 25.545 69a2.174 2.174 0 0 1-2.181-2.167v-19.5c0-.122.01-.242.03-.36zm-.03-21.306v-6.5c0-1.197.976-2.167 2.181-2.167s2.182.97 2.182 2.167v6.5a2.174 2.174 0 0 1-2.182 2.166 2.174 2.174 0 0 1-2.181-2.166zM40.818 36.5V19.167C40.818 17.97 41.795 17 43 17s2.182.97 2.182 2.167V36.5A2.174 2.174 0 0 1 43 38.667a2.174 2.174 0 0 1-2.182-2.167zm17.455 30.333V49.5c0-1.197.977-2.167 2.182-2.167s2.181.97 2.181 2.167v17.333A2.174 2.174 0 0 1 60.455 69a2.174 2.174 0 0 1-2.182-2.167z"/>
    </g>
</svg>
