<svg xmlns="http://www.w3.org/2000/svg" width="85" height="85" viewBox="0 0 85 85">
    <g fill="none" fill-rule="evenodd" stroke="#FFF">
        <circle cx="39.5" cy="39.5" r="39.5" stroke-width="5" transform="translate(3 3)"/>
        <path stroke-width="3.545" d="M24.154 43c0-1.754.238-3.451.683-5.063l-5.065-2.934c-.866-.502-1.028-1.849-.36-3.009l2.295-3.988c.667-1.16 1.91-1.693 2.777-1.19l5.07 2.936a18.811 18.811 0 0 1 8.735-5.065v-5.869c0-1.004 1.081-1.818 2.416-1.818h4.59c1.335 0 2.416.814 2.416 1.818v5.869c3.369.87 6.373 2.65 8.736 5.065l5.07-2.937c.866-.502 2.11.031 2.776 1.19l2.296 3.99c.667 1.159.505 2.506-.361 3.008l-5.065 2.934c.445 1.612.683 3.31.683 5.063 0 1.754-.238 3.451-.683 5.063l5.065 2.934c.866.502 1.028 1.849.36 3.009l-2.295 3.988c-.667 1.16-1.91 1.693-2.777 1.19l-5.07-2.936a18.811 18.811 0 0 1-8.735 5.065v5.869c0 1.004-1.081 1.818-2.416 1.818h-4.59c-1.335 0-2.416-.814-2.416-1.818v-5.869a18.811 18.811 0 0 1-8.736-5.065l-5.07 2.937c-.866.502-2.11-.031-2.776-1.19l-2.296-3.99c-.667-1.159-.505-2.506.361-3.008l5.065-2.934A18.987 18.987 0 0 1 24.154 43zM43 52.455c5.204 0 9.423-4.233 9.423-9.455S48.204 33.545 43 33.545 33.577 37.778 33.577 43s4.219 9.455 9.423 9.455z"/>
    </g>
</svg>
