<svg xmlns="http://www.w3.org/2000/svg" width="85" height="85" viewBox="0 0 85 85">
    <g fill="none" fill-rule="evenodd" stroke="#4A4A4A" transform="translate(3 3)">
        <circle cx="39.5" cy="39.5" r="39.5" stroke-width="5"/>
        <path stroke-width="3.5" d="M46 34h12.923c1.7 0 3.077 1.378 3.077 3.077v5.846c0 1.7-1.378 3.077-3.077 3.077H46v12.923c0 1.7-1.378 3.077-3.077 3.077h-5.846A3.077 3.077 0 0 1 34 58.923V46H21.077A3.077 3.077 0 0 1 18 42.923v-5.846c0-1.7 1.378-3.077 3.077-3.077H34V21.077c0-1.7 1.378-3.077 3.077-3.077h5.846c1.7 0 3.077 1.378 3.077 3.077V34z"/>
    </g>
</svg>
