<svg xmlns="http://www.w3.org/2000/svg" xmlns:xlink="http://www.w3.org/1999/xlink" width="208" height="272" viewBox="0 0 208 272">
    <defs>
        <path id="b" d="M96.205 172L168 256h-23.111L.412 172 0 0h192v172z"/>
        <filter id="a" width="114.6%" height="110.9%" x="-7.3%" y="-3.9%" filterUnits="objectBoundingBox">
            <feOffset dy="4" in="SourceAlpha" result="shadowOffsetOuter1"/>
            <feGaussianBlur in="shadowOffsetOuter1" result="shadowBlurOuter1" stdDeviation="4"/>
            <feColorMatrix in="shadowBlurOuter1" values="0 0 0 0 0 0 0 0 0 0 0 0 0 0 0 0 0 0 0.12 0"/>
        </filter>
    </defs>
    <g fill="none" fill-rule="evenodd">
        <g transform="translate(8 4)">
            <use fill="#000" filter="url(#a)" xlink:href="#b"/>
            <use fill="#202020" xlink:href="#b"/>
        </g>
        <path fill="#FFF" d="M90.487 78.072h8.525l9.3 23.902h-8.728l-1.246-3.511h-7.582l-1.179 3.51h-8.49l9.4-23.901zm6.22 10.768l-4.106-2.691 1.527 2.637-1.632.054v2.53l4.054 2.691-1.527-2.637h1.685V88.84zm-20.103.71a6.409 6.409 0 0 1 1.651.658c.54.304 1.022.687 1.45 1.148a5.25 5.25 0 0 1 1.01 1.604c.248.608.371 1.283.371 2.026 0 1.305-.264 2.402-.792 3.291a6.403 6.403 0 0 1-2.09 2.16c-.864.552-1.853.946-2.965 1.182a16.412 16.412 0 0 1-3.42.355H61V78.072h9.807c.966 0 1.994.073 3.084.22 1.09.145 2.095.438 3.016.877a5.92 5.92 0 0 1 2.292 1.924c.606.844.91 1.953.91 3.326 0 1.282-.32 2.34-.96 3.173-.641.833-1.49 1.452-2.545 1.857v.101zm-3.43-5.133h-3.16v1.882h3.16v-1.882zm-3.16-1.96l1.185 1.96h1.896l-3.08-1.96zm3.081 5.802l-1.185-1.96h-1.895l3.08 1.96zm.425 4.255h-4.213v2.567h4.213v-2.567zm-4.107-2.673l1.58 2.673h2.527l-4.107-2.673zm4.107 7.913l-1.58-2.673h-2.527l4.107 2.673zm45.68 4.22h-8.227V84.806h-6.014V78h20.256v6.806H119.2v17.168zm22.774 0h-8.227V84.806h-6.015V78h20.256v6.806h-6.014v17.168z"/>
    </g>
</svg>
