<svg xmlns="http://www.w3.org/2000/svg" width="85" height="85" viewBox="0 0 85 85">
    <g fill="none" fill-rule="evenodd">
        <path fill="#D8D8D8" d="M42.5 82C64.315 82 82 64.315 82 42.5S65.569 3.143 42.5 23C20.534 43.874 3 20.685 3 42.5S20.685 82 42.5 82z"/>
        <circle cx="39.5" cy="39.5" r="39.5" stroke="#4A4A4A" stroke-width="5" transform="translate(3 3)"/>
        <path fill="#4A4A4A" d="M59.49 32.125L33.772 17.397a3 3 0 0 0-1.49-.397h-1.43a1.016 1.016 0 0 0-.767 1.682l8.107 9.341a3 3 0 0 1-2.266 4.967H27a3 3 0 0 0-3 3v15.284a3 3 0 0 0 1.51 2.603l25.719 14.726a3 3 0 0 0 1.49.397h1.43a1.016 1.016 0 0 0 .766-1.682L46.81 57.98a3 3 0 0 1 2.266-4.966H58a3 3 0 0 0 3-3V34.729a3 3 0 0 0-1.51-2.604z"/>
    </g>
</svg>
