<svg xmlns="http://www.w3.org/2000/svg" width="83" height="83" viewBox="0 0 83 83">
    <g fill="none" fill-rule="evenodd" stroke="#FFF" stroke-width="3" transform="translate(2 2)">
        <circle cx="39.5" cy="39.5" r="39.5"/>
        <path d="M46 34h12.923c1.7 0 3.077 1.378 3.077 3.077v5.846c0 1.7-1.378 3.077-3.077 3.077H46v12.923c0 1.7-1.378 3.077-3.077 3.077h-5.846A3.077 3.077 0 0 1 34 58.923V46H21.077A3.077 3.077 0 0 1 18 42.923v-5.846c0-1.7 1.378-3.077 3.077-3.077H34V21.077c0-1.7 1.378-3.077 3.077-3.077h5.846c1.7 0 3.077 1.378 3.077 3.077V34z"/>
    </g>
</svg>
