<svg xmlns="http://www.w3.org/2000/svg" width="633" height="808" viewBox="0 0 633 808">
    <defs>
        <linearGradient id="a" x1="100%" x2="0%" y1="0%" y2="100%">
            <stop offset="0%" stop-color="#FF9D00"/>
            <stop offset="100%" stop-color="#FD6400"/>
        </linearGradient>
        <filter id="b" width="103.2%" height="102.2%" x="-1.6%" y="-1.1%" filterUnits="objectBoundingBox">
            <feGaussianBlur in="SourceGraphic" stdDeviation="2.55"/>
        </filter>
        <filter id="c" width="103.2%" height="102.2%" x="-1.6%" y="-1.1%" filterUnits="objectBoundingBox">
            <feGaussianBlur in="SourceGraphic" stdDeviation="2.55"/>
        </filter>
    </defs>
    <g fill="url(#a)" fill-rule="evenodd" transform="translate(-753 -126)">
        <path d="M0 337.847c0-7.042 4.941-15.627 11.02-19.166l337.163-196.266c6.087-3.543 16.724-6.415 23.772-6.415h31.794c7.042 0 9.043 4.343 4.47 9.7L246.281 315.395c-4.573 5.358-2.574 9.7 4.473 9.7h212.492c7.044 0 12.754 5.713 12.754 12.752v236.34c0 7.043-4.941 15.627-11.02 19.166L127.817 789.586c-6.087 3.542-16.724 6.414-23.772 6.414H72.25c-7.042 0-9.043-4.343-4.47-9.699l161.938-189.664c4.573-5.356 2.574-9.698-4.473-9.698H12.754C5.71 586.939 0 581.226 0 574.188V337.847z" filter="url(#b)" opacity=".08" style="mix-blend-mode:luminosity" transform="matrix(-1 0 0 1 1235 132)"/>
        <path d="M145 221.847c0-7.042 4.941-15.627 11.02-19.166L493.183 6.415C499.27 2.872 509.907 0 516.955 0h31.794c7.042 0 9.043 4.343 4.47 9.7L391.281 199.395c-4.573 5.358-2.574 9.7 4.473 9.7h212.492c7.044 0 12.754 5.713 12.754 12.752v236.34c0 7.043-4.941 15.627-11.02 19.166L272.817 673.586c-6.087 3.542-16.724 6.414-23.772 6.414H217.25c-7.042 0-9.043-4.343-4.47-9.699l161.938-189.664c4.573-5.356 2.574-9.698-4.473-9.698H157.754c-7.044 0-12.754-5.713-12.754-12.751V221.847z" filter="url(#c)" opacity=".12" style="mix-blend-mode:luminosity" transform="matrix(-1 0 0 1 1525 132)"/>
    </g>
</svg>
